<svg version="1.1" xmlns="http://www.w3.org/2000/svg" xmlns:xlink="http://www.w3.org/1999/xlink" width="1306" height="381" viewBox="0 0 1306 381"><defs/><g transform="matrix(1,0,0,1,0,0)"><g><g><g><path fill="none" stroke="#d3d3d3" paint-order="fill stroke markers" d=" M 0 0 L 1200 0" stroke-miterlimit="10" stroke-opacity="0.8" stroke-dasharray="5"/></g><g><path fill="none" stroke="#d3d3d3" paint-order="fill stroke markers" d=" M 0 0 L 0 800" stroke-miterlimit="10" stroke-opacity="0.8" stroke-dasharray="5"/></g></g><g id="_3BC2E96D-4FB4-411B-9C9F-69C4CC615A42" bpmn2nodeid="_3BC2E96D-4FB4-411B-9C9F-69C4CC615A42" transform="matrix(1,0,0,1,505,229)"><g><path fill="none" stroke="none"/></g><g transform="matrix(1,0,0,1,0,0)"><path fill="#ffffff" stroke="none" id="_3BC2E96D-4FB4-411B-9C9F-69C4CC615A42?shapeType=BACKGROUND" paint-order="stroke fill markers" d=" M 2 0 L 152 0 L 152 0 A 2 2 0 0 1 154 2 L 154 100 L 154 100 A 2 2 0 0 1 152 102 L 2 102 L 2 102 A 2 2 0 0 1 0 100 L 0 2 L 0 2.0000000000000004 A 2 2 0 0 1 1.9999999999999996 0 Z"/></g><g transform="matrix(1,0,0,1,0,0)"><path fill="none" stroke="rgb(255,0,0)" id="_3BC2E96D-4FB4-411B-9C9F-69C4CC615A42?shapeType=BORDER&amp;renderType=STROKE" paint-order="fill stroke markers" d=" M 2 0 L 152 0 L 152 0 A 2 2 0 0 1 154 2 L 154 100 L 154 100 A 2 2 0 0 1 152 102 L 2 102 L 2 102 A 2 2 0 0 1 0 100 L 0 2 L 0 2.0000000000000004 A 2 2 0 0 1 1.9999999999999996 0 Z" stroke-miterlimit="10" stroke-width="1.5" stroke-dasharray=""/></g><g transform="matrix(1,0,0,1,54.09765625,43.5)"><text fill="#000000" stroke="none" font-family="Open Sans" font-size="12pt" font-style="normal" font-weight="normal" text-decoration="normal" x="22.90234375" y="12" text-anchor="middle" dominant-baseline="alphabetic">Task 1</text></g></g><g id="_4269FAF5-3314-4FA8-B7DE-A4CD58D57D3E" bpmn2nodeid="_4269FAF5-3314-4FA8-B7DE-A4CD58D57D3E" transform="matrix(1,0,0,1,732,229)"><g><path fill="none" stroke="none"/></g><g transform="matrix(1,0,0,1,0,0)"><path fill="#ffffff" stroke="none" id="_4269FAF5-3314-4FA8-B7DE-A4CD58D57D3E?shapeType=BACKGROUND" paint-order="stroke fill markers" d=" M 2 0 L 152 0 L 152 0 A 2 2 0 0 1 154 2 L 154 100 L 154 100 A 2 2 0 0 1 152 102 L 2 102 L 2 102 A 2 2 0 0 1 0 100 L 0 2 L 0 2.0000000000000004 A 2 2 0 0 1 1.9999999999999996 0 Z"/></g><g transform="matrix(1,0,0,1,0,0)"><path fill="none" stroke="rgb(0,0,0)" id="_4269FAF5-3314-4FA8-B7DE-A4CD58D57D3E?shapeType=BORDER&amp;renderType=STROKE" paint-order="fill stroke markers" d=" M 2 0 L 152 0 L 152 0 A 2 2 0 0 1 154 2 L 154 100 L 154 100 A 2 2 0 0 1 152 102 L 2 102 L 2 102 A 2 2 0 0 1 0 100 L 0 2 L 0 2.0000000000000004 A 2 2 0 0 1 1.9999999999999996 0 Z" stroke-miterlimit="10" stroke-width="1.5" stroke-dasharray=""/></g><g transform="matrix(1,0,0,1,54.09765625,43.5)"><text fill="#000000" stroke="none" font-family="Open Sans" font-size="12pt" font-style="normal" font-weight="normal" text-decoration="normal" x="22.90234375" y="12" text-anchor="middle" dominant-baseline="alphabetic">Task 2</text></g></g><g id="_7AA25294-4F41-4DEB-A19C-0A2F39BAFE30" bpmn2nodeid="_7AA25294-4F41-4DEB-A19C-0A2F39BAFE30" transform="matrix(1,0,0,1,369,252)"><g><path fill="none" stroke="none"/></g><g transform="matrix(0.125,0,0,0.125,0,0)"><g transform="matrix(1,0,0,1,0,0)"><path fill="#e8fae6" stroke="none" id="_7AA25294-4F41-4DEB-A19C-0A2F39BAFE30?shapeType=BACKGROUND" paint-order="stroke fill markers" d=" M 0 0 M 444 224 C 444 263.9 434.2 300.8 414.4 334.5 C 394.7 368.2 368 394.9 334.4 414.5 C 300.79999999999995 434.1 263.9 444 224 444 C 184.10000000000002 444 147.2 434.2 113.5 414.4 C 79.8 394.7 53.1 368 33.5 334.4 C 13.899999999999999 300.79999999999995 4 263.9 4 224 C 4 184.10000000000002 13.8 147.2 33.6 113.5 C 53.400000000000006 79.80000000000001 80.1 53.1 113.6 33.5 C 147.1 13.899999999999999 184.1 4 224 4 C 263.9 4 300.8 13.8 334.5 33.6 C 368.2 53.400000000000006 394.9 80.1 414.5 113.6 C 434.1 147.1 444 184.1 444 224 Z"/></g><g><g transform="matrix(1,0,0,1,0,0)"><g transform="matrix(1,0,0,1,0,0)"><path fill="#4aa241" stroke="none" id="_7AA25294-4F41-4DEB-A19C-0A2F39BAFE30?shapeType=BORDER&amp;renderType=FILL" paint-order="stroke fill markers" d=" M 0 0 M 224 0 C 100.3 0 0 100.3 0 224 C 0 347.7 100.3 448 224 448 C 347.7 448 448 347.7 448 224 C 448 100.30000000000001 347.7 0 224 0 Z M 0 0 M 224 432 C 109.1 432 16 338.9 16 224 C 16 109.10000000000002 109.1 16 224 16 C 338.9 16 432 109.1 432 224 C 432 338.9 338.9 432 224 432 Z"/></g></g></g></g><g transform="matrix(1,0,0,1,28,61)"/></g><g id="_8B822D1C-1AB4-4AD2-BC08-1F70F9F2A831" bpmn2nodeid="_8B822D1C-1AB4-4AD2-BC08-1F70F9F2A831"><g><path fill="none" stroke="#000000" paint-order="fill stroke markers" d=" M 425 280 L 490 280" stroke-miterlimit="10" stroke-dasharray=""/></g><g transform="matrix(1,0,0,1,425,280)"/><g transform="matrix(6.123233995736766e-17,1,-1,6.123233995736766e-17,505,275)"><path fill="#000000" stroke="#000000" paint-order="fill stroke markers" d=" M 10 15 L 0 15 L 5 0 Z" stroke-miterlimit="10" stroke-dasharray=""/></g><g transform="matrix(1,0,0,1,425,270)"/></g><g id="_40DA244D-2A58-4DAE-9D42-F2BFE275F732" bpmn2nodeid="_40DA244D-2A58-4DAE-9D42-F2BFE275F732"><g><path fill="none" stroke="#000000" paint-order="fill stroke markers" d=" M 659 280 L 717 280" stroke-miterlimit="10" stroke-dasharray=""/></g><g transform="matrix(1,0,0,1,659,280)"/><g transform="matrix(6.123233995736766e-17,1,-1,6.123233995736766e-17,732,275)"><path fill="#000000" stroke="#000000" paint-order="fill stroke markers" d=" M 10 15 L 0 15 L 5 0 Z" stroke-miterlimit="10" stroke-dasharray=""/></g><g transform="matrix(1,0,0,1,659,270)"/></g><g transform="matrix(1,0,0,1,505,229)"/><g transform="matrix(1,0,0,1,732,229)"/><g transform="matrix(1,0,0,1,369,252)"/><g id="_5B4B84E9-ECB7-4C61-B79F-1F439C3ED0BE" bpmn2nodeid="_5B4B84E9-ECB7-4C61-B79F-1F439C3ED0BE" transform="matrix(1,0,0,1,966,229)"><g><path fill="none" stroke="none"/></g><g transform="matrix(1,0,0,1,0,0)"><path fill="#ffffff" stroke="none" id="_5B4B84E9-ECB7-4C61-B79F-1F439C3ED0BE?shapeType=BACKGROUND" paint-order="stroke fill markers" d=" M 2 0 L 152 0 L 152 0 A 2 2 0 0 1 154 2 L 154 100 L 154 100 A 2 2 0 0 1 152 102 L 2 102 L 2 102 A 2 2 0 0 1 0 100 L 0 2 L 0 2.0000000000000004 A 2 2 0 0 1 1.9999999999999996 0 Z"/></g><g transform="matrix(1,0,0,1,0,0)"><path fill="none" stroke="rgb(0,0,0)" id="_5B4B84E9-ECB7-4C61-B79F-1F439C3ED0BE?shapeType=BORDER&amp;renderType=STROKE" paint-order="fill stroke markers" d=" M 2 0 L 152 0 L 152 0 A 2 2 0 0 1 154 2 L 154 100 L 154 100 A 2 2 0 0 1 152 102 L 2 102 L 2 102 A 2 2 0 0 1 0 100 L 0 2 L 0 2.0000000000000004 A 2 2 0 0 1 1.9999999999999996 0 Z" stroke-miterlimit="10" stroke-width="1.5" stroke-dasharray=""/></g><g transform="matrix(1,0,0,1,54.09765625,43.5)"><text fill="#000000" stroke="none" font-family="Open Sans" font-size="12pt" font-style="normal" font-weight="normal" text-decoration="normal" x="22.90234375" y="12" text-anchor="middle" dominant-baseline="alphabetic">Task 3</text></g></g><g id="_593C8FC8-6D9F-40B3-80B2-5C55CAD8E766" bpmn2nodeid="_593C8FC8-6D9F-40B3-80B2-5C55CAD8E766"><g><path fill="none" stroke="#000000" paint-order="fill stroke markers" d=" M 886 280 L 951 280" stroke-miterlimit="10" stroke-dasharray=""/></g><g transform="matrix(1,0,0,1,886,280)"/><g transform="matrix(6.123233995736766e-17,1,-1,6.123233995736766e-17,966,275)"><path fill="#000000" stroke="#000000" paint-order="fill stroke markers" d=" M 10 15 L 0 15 L 5 0 Z" stroke-miterlimit="10" stroke-dasharray=""/></g><g transform="matrix(1,0,0,1,886,270)"/></g><g transform="matrix(1,0,0,1,966,229)"/><g id="_2D3FC3F3-513F-4EB2-B294-C9DD49FC5478" bpmn2nodeid="_2D3FC3F3-513F-4EB2-B294-C9DD49FC5478" transform="matrix(1,0,0,1,1200,252)"><g><path fill="none" stroke="none"/></g><g transform="matrix(0.125,0,0,0.125,0,0)"><g transform="matrix(1,0,0,1,0,0)"><path fill="#fce7e7" stroke="none" id="_2D3FC3F3-513F-4EB2-B294-C9DD49FC5478?shapeType=BACKGROUND" paint-order="stroke fill markers" d=" M 0 0 M 444 224 C 444 263.9 434.2 300.8 414.4 334.5 C 394.7 368.2 368 394.9 334.4 414.5 C 300.79999999999995 434.1 263.9 444 224 444 C 184.10000000000002 444 147.2 434.2 113.5 414.4 C 79.8 394.7 53.1 368 33.5 334.4 C 13.899999999999999 300.79999999999995 4 263.9 4 224 C 4 184.10000000000002 13.8 147.2 33.6 113.5 C 53.400000000000006 79.80000000000001 80.1 53.1 113.6 33.5 C 147.1 13.899999999999999 184.1 4 224 4 C 263.9 4 300.8 13.8 334.5 33.6 C 368.2 53.400000000000006 394.9 80.1 414.5 113.6 C 434.1 147.1 444 184.1 444 224 Z"/></g><g><g transform="matrix(1,0,0,1,0,0)"><g transform="matrix(1,0,0,1,0,0)"><path fill="rgb(163,0,0)" stroke="none" id="_2D3FC3F3-513F-4EB2-B294-C9DD49FC5478?shapeType=BORDER&amp;renderType=FILL" paint-order="stroke fill markers" d=" M 0 0 M 224 0 C 100.3 0 0 100.3 0 224 C 0 347.7 100.3 448 224 448 C 347.7 448 448 347.7 448 224 C 448 100.30000000000001 347.7 0 224 0 Z M 0 0 M 224 400 C 126.8 400 48 321.2 48 224 C 48 126.80000000000001 126.8 48 224 48 C 321.2 48 400 126.8 400 224 C 400 321.2 321.2 400 224 400 Z"/></g></g></g></g><g transform="matrix(1,0,0,1,28,61)"/></g><g id="_1A424169-32FD-41FB-8F6C-EA993664C0B6" bpmn2nodeid="_1A424169-32FD-41FB-8F6C-EA993664C0B6"><g><path fill="none" stroke="#000000" paint-order="fill stroke markers" d=" M 1120 280 L 1185 280" stroke-miterlimit="10" stroke-dasharray=""/></g><g transform="matrix(1,0,0,1,1120,280)"/><g transform="matrix(6.123233995736766e-17,1,-1,6.123233995736766e-17,1200,275)"><path fill="#000000" stroke="#000000" paint-order="fill stroke markers" d=" M 10 15 L 0 15 L 5 0 Z" stroke-miterlimit="10" stroke-dasharray=""/></g><g transform="matrix(1,0,0,1,1120,270)"/></g><g transform="matrix(1,0,0,1,1200,252)"/></g></g></svg>